<svg width="122" height="121" viewBox="0 0 122 121" fill="none" xmlns="http://www.w3.org/2000/svg">
<path d="M61 7C90.8912 7 115 30.9658 115 60.3779C115 89.7899 90.8911 113.755 61 113.755C31.1089 113.755 7.00021 89.7899 7 60.3779C7 30.9658 31.1088 7 61 7Z" stroke="#861F1F" stroke-width="14"/>
<path fill-rule="evenodd" clip-rule="evenodd" d="M78.1063 34.3431L49.6377 63.0928L47.2084 60.6369L43.1371 64.7486L47.6735 69.3302L38.9001 78.1955L38.055 79.0467V89.7354H48.6361L58.2568 80.0188L62.7932 84.6004L66.8644 80.4909L64.4328 78.0351L92.8991 49.2831V34.3431H78.1063ZM60.3615 73.921L53.709 67.2022L80.4897 40.1549H87.1445V46.8737L60.3615 73.921Z" fill="#861F1F"/>
<path fill-rule="evenodd" clip-rule="evenodd" d="M46.1804 35.451H32.4587V48.7605L61.1752 76.6167L74.8969 63.3048L46.1804 35.451ZM84.5019 66.4119L78.0977 72.6237L88.422 82.6377V89.7355H81.0992L70.775 79.7214L64.3734 85.9331L60.7146 82.3843L80.8405 62.8631L84.5019 66.4119Z" fill="#861F1F"/>
</svg>
