<svg width="122" height="121" viewBox="0 0 122 121" fill="none" xmlns="http://www.w3.org/2000/svg">
<path d="M61 7C90.8909 7 115 30.9662 115 60.3799C115 89.7936 90.891 113.76 61 113.76C31.109 113.76 7 89.7936 7 60.3799C7.00006 30.9662 31.1091 7 61 7Z" stroke="#0E6352" stroke-width="14"/>
<path fill-rule="evenodd" clip-rule="evenodd" d="M63.4181 94.6699L63.3836 94.6761L63.1611 94.7841L63.0984 94.7965L63.0546 94.7841L62.832 94.6761C62.7986 94.6658 62.7735 94.6709 62.7568 94.6915L62.7443 94.7224L62.691 96.0437L62.7067 96.1055L62.738 96.1456L63.064 96.3741L63.111 96.3864L63.1486 96.3741L63.4745 96.1456L63.5121 96.0962L63.5246 96.0437L63.4714 94.7255C63.463 94.6925 63.4453 94.674 63.4181 94.6699ZM64.2486 94.321L64.2078 94.3272L63.6281 94.6143L63.5967 94.6452L63.5873 94.6792L63.6437 96.0067L63.6594 96.0437L63.6845 96.0653L64.3144 96.3524C64.3541 96.3627 64.3844 96.3545 64.4053 96.3277L64.4178 96.2845L64.3113 94.389C64.3008 94.3519 64.2799 94.3293 64.2486 94.321ZM62.0078 94.3272C61.994 94.319 61.9775 94.3163 61.9617 94.3198C61.946 94.3232 61.9322 94.3325 61.9232 94.3457L61.9044 94.389L61.7978 96.2845C61.7999 96.3216 61.8177 96.3463 61.8511 96.3586L61.8981 96.3524L62.5281 96.0653L62.5594 96.0406L62.5719 96.0067L62.6252 94.6792L62.6158 94.6421L62.5845 94.6112L62.0078 94.3272Z" fill="#0E6352"/>
<path fill-rule="evenodd" clip-rule="evenodd" d="M61.5597 32.1288C62.3908 32.1288 63.188 32.454 63.7757 33.033C64.3634 33.612 64.6936 34.3972 64.6936 35.216V38.3032H67.0879C68.0605 38.3033 69.0197 38.5263 69.8897 38.9547L74.8351 41.3905H86.6312C87.4624 41.3905 88.2595 41.7157 88.8473 42.2947C89.435 42.8737 89.7652 43.6589 89.7652 44.4777C89.7652 45.2965 89.435 46.0817 88.8473 46.6607C88.2595 47.2397 87.4624 47.5649 86.6312 47.5649H85.4341L92.5669 61.6211C92.7863 62.0502 92.8991 62.5226 92.8991 63.0011C92.8991 66.2762 91.5784 69.4172 89.2275 71.7331C86.8766 74.049 83.688 75.35 80.3633 75.35C77.0386 75.35 73.8501 74.049 71.4992 71.7331C69.1483 69.4172 67.8276 66.2762 67.8276 63.0011C67.8276 62.5226 67.9404 62.0502 68.1598 61.6211L75.2926 47.5649H74.8351C73.8625 47.5649 72.9033 47.3419 72.0333 46.9135L67.0879 44.4777H64.6936V81.5245H74.0954C74.9266 81.5245 75.7238 81.8497 76.3115 82.4287C76.8992 83.0077 77.2294 83.7929 77.2294 84.6117C77.2294 85.4305 76.8992 86.2157 76.3115 86.7947C75.7238 87.3737 74.9266 87.6989 74.0954 87.6989H49.0239C48.1927 87.6989 47.3956 87.3737 46.8079 86.7947C46.2201 86.2157 45.8899 85.4305 45.8899 84.6117C45.8899 83.7929 46.2201 83.0077 46.8079 82.4287C47.3956 81.8497 48.1927 81.5245 49.0239 81.5245H58.4257V44.4777H56.0314L51.086 46.9135C50.2161 47.3419 49.2568 47.5649 48.2843 47.5649H47.8267L54.9596 61.6211C55.1775 62.0495 55.2913 62.5219 55.2918 63.0011C55.2918 66.2762 53.971 69.4172 51.6201 71.7331C49.2692 74.049 46.0807 75.35 42.756 75.35C39.4313 75.35 36.2428 74.049 33.8919 71.7331C31.5409 69.4172 30.2202 66.2762 30.2202 63.0011C30.2207 62.5219 30.3345 62.0495 30.5524 61.6211L37.6853 47.5649H36.4881C35.6569 47.5649 34.8598 47.2397 34.2721 46.6607C33.6843 46.0817 33.3542 45.2965 33.3542 44.4777C33.3542 43.6589 33.6843 42.8737 34.2721 42.2947C34.8598 41.7157 35.6569 41.3905 36.4881 41.3905H48.2843L53.2296 38.9547C54.0996 38.5263 55.0588 38.3033 56.0314 38.3032H58.4257V35.216C58.4257 34.3972 58.7559 33.612 59.3436 33.033C59.9314 32.454 60.7285 32.1288 61.5597 32.1288Z" fill="#0E6352"/>
</svg>
