<svg width="122" height="121" viewBox="0 0 122 121" fill="none" xmlns="http://www.w3.org/2000/svg">
<path d="M61 7C90.8909 7 115 30.9662 115 60.3799C115 89.7936 90.891 113.76 61 113.76C31.109 113.76 7 89.7936 7 60.3799C7.00006 30.9662 31.1091 7 61 7Z" stroke="#0E4255" stroke-width="14"/>
<path d="M81.2411 36.6873C80.066 36.8052 78.315 36.9345 76.4165 36.9345C74.4235 36.9345 72.6751 36.7898 71.2192 36.4977C67.2915 35.7138 63.4698 33.1966 61.5558 31.7798C59.6443 33.1953 55.8279 35.7099 51.8975 36.4977C50.4403 36.7898 48.6919 36.9345 46.6989 36.9345C44.8056 36.9345 43.0507 36.8013 41.8808 36.6873C40.5866 39.9154 37.4936 49.2091 39.3611 60.6202C41.7488 75.2274 57.333 87.1881 61.5597 90.1908C65.7877 87.1881 81.3718 75.2274 83.7569 60.6202C85.6205 49.2104 82.5353 39.918 81.2411 36.6873ZM58.1107 36.6028C59.2985 35.989 60.4496 35.3081 61.5584 34.5634C62.6692 35.3083 63.8225 35.9892 65.0125 36.6028V51.0511H58.1107V36.6028ZM65.0125 84.5954C63.89 85.5544 62.7385 86.4797 61.5597 87.37C60.3835 86.4787 59.2334 85.5543 58.1107 84.5979V60.0937H65.0125V84.5954ZM81.6708 58.9626H41.4498C41.1527 56.7147 41.0332 54.4473 41.0927 52.181H82.0254C82.0857 54.4472 81.9671 56.7146 81.6708 58.9626Z" fill="#0E4255"/>
<path d="M88.0186 30.6064C87.6578 29.8801 87.098 29.2688 86.403 28.8423C85.708 28.4158 84.9059 28.1912 84.0883 28.1943C83.8777 28.1943 83.6681 28.2088 83.4593 28.2379C83.4334 28.243 80.6588 28.6286 77.5851 28.6286C75.8665 28.6286 74.4106 28.5107 73.2588 28.2814C69.0839 27.4488 64.465 23.5878 64.4184 23.5494C63.622 22.8758 62.6088 22.5056 61.5612 22.5054C60.5136 22.5051 59.5003 22.8749 58.7035 23.5481C58.6582 23.5853 54.0329 27.4475 49.8631 28.2801C48.71 28.5107 47.2541 28.6273 45.5355 28.6273C42.4515 28.6273 39.6872 28.2417 39.66 28.2366C39.4536 28.2101 39.2457 28.196 39.0375 28.1943C38.2205 28.1915 37.4191 28.4153 36.724 28.8403C36.0289 29.2652 35.4679 29.8744 35.1046 30.5987C34.4071 32.0181 28.4695 44.7448 31.2248 61.6245C34.6555 82.5944 58.1599 98.01 59.159 98.6556C59.8733 99.1176 60.7081 99.3634 61.5613 99.363C62.4146 99.3625 63.2492 99.1158 63.9629 98.653C64.9607 98.0087 88.4715 82.5906 91.8972 61.6258C94.7378 44.2465 88.2942 31.1547 88.0186 30.6064ZM89.6272 61.2671C86.3582 81.266 63.6627 96.1436 62.6959 96.7674C62.3579 96.9849 61.9634 97.1006 61.5603 97.1006C61.1572 97.1006 60.7627 96.9849 60.4247 96.7674C59.458 96.1436 36.7689 81.266 33.496 61.2671C30.7783 44.618 36.9074 32.1295 37.1636 31.6056C37.3596 31.217 37.6738 30.8991 38.062 30.6966C38.4502 30.4942 38.8928 30.4174 39.3274 30.477C39.3559 30.4809 42.2716 30.8895 45.5342 30.8895C47.4094 30.8895 49.0193 30.7563 50.32 30.4963C55.1213 29.5381 60.1542 25.3031 60.2047 25.2608C60.5831 24.9414 61.0642 24.7659 61.5616 24.7659C62.059 24.7659 62.5401 24.9414 62.9185 25.2608C62.9677 25.3031 67.9929 29.5381 72.8007 30.4963C74.1013 30.7563 75.7073 30.8895 77.5851 30.8895C80.8477 30.8895 83.7595 30.4809 83.7906 30.477C84.2252 30.4174 84.6678 30.4942 85.056 30.6966C85.4442 30.8991 85.7584 31.217 85.9544 31.6056C86.2184 32.1295 92.3462 44.618 89.6272 61.2671Z" fill="#0E4255"/>
<path d="M61.561 29.8814C62.4387 29.8814 63.1502 29.1725 63.1502 28.2981C63.1502 27.4236 62.4387 26.7147 61.561 26.7147C60.6833 26.7147 59.9717 27.4236 59.9717 28.2981C59.9717 29.1725 60.6833 29.8814 61.561 29.8814Z" fill="#0E4255"/>
<path d="M83.2639 35.4281C84.1423 35.4281 84.8544 34.7186 84.8544 33.8435C84.8544 32.9684 84.1423 32.2589 83.2639 32.2589C82.3855 32.2589 81.6734 32.9684 81.6734 33.8435C81.6734 34.7186 82.3855 35.4281 83.2639 35.4281Z" fill="#0E4255"/>
<path d="M87.233 50.3325C88.1107 50.3325 88.8223 49.6231 88.8223 48.7479C88.8223 47.8728 88.1107 47.1633 87.233 47.1633C86.3553 47.1633 85.6438 47.8728 85.6438 48.7479C85.6438 49.6231 86.3553 50.3325 87.233 50.3325Z" fill="#0E4255"/>
<path d="M84.8958 68.907C85.7735 68.907 86.485 68.1975 86.485 67.3224C86.485 66.4472 85.7735 65.7378 84.8958 65.7378C84.0181 65.7378 83.3066 66.4472 83.3066 67.3224C83.3066 68.1975 84.0181 68.907 84.8958 68.907Z" fill="#0E4255"/>
<path d="M75.3385 83.4194C76.2169 83.4194 76.929 82.71 76.929 81.8348C76.929 80.9597 76.2169 80.2502 75.3385 80.2502C74.4601 80.2502 73.748 80.9597 73.748 81.8348C73.748 82.71 74.4601 83.4194 75.3385 83.4194Z" fill="#0E4255"/>
<path d="M61.5597 94.9919C62.4417 94.9919 63.1566 94.2842 63.1566 93.4112C63.1566 92.5382 62.4417 91.8304 61.5597 91.8304C60.6777 91.8304 59.9627 92.5382 59.9627 93.4112C59.9627 94.2842 60.6777 94.9919 61.5597 94.9919Z" fill="#0E4255"/>
<path d="M47.7821 83.4194C48.6591 83.4194 49.37 82.71 49.37 81.8348C49.37 80.9597 48.6591 80.2502 47.7821 80.2502C46.9051 80.2502 46.1942 80.9597 46.1942 81.8348C46.1942 82.71 46.9051 83.4194 47.7821 83.4194Z" fill="#0E4255"/>
<path d="M38.2209 68.907C39.0994 68.907 39.8114 68.1981 39.8114 67.3237C39.8114 66.4492 39.0994 65.7403 38.2209 65.7403C37.3425 65.7403 36.6304 66.4492 36.6304 67.3237C36.6304 68.1981 37.3425 68.907 38.2209 68.907Z" fill="#0E4255"/>
<path d="M35.8863 50.3325C36.764 50.3325 37.4755 49.6231 37.4755 48.7479C37.4755 47.8728 36.764 47.1633 35.8863 47.1633C35.0086 47.1633 34.2971 47.8728 34.2971 48.7479C34.2971 49.6231 35.0086 50.3325 35.8863 50.3325Z" fill="#0E4255"/>
<path d="M39.7882 35.4281C40.6659 35.4281 41.3774 34.7186 41.3774 33.8435C41.3774 32.9684 40.6659 32.2589 39.7882 32.2589C38.9105 32.2589 38.1989 32.9684 38.1989 33.8435C38.1989 34.7186 38.9105 35.4281 39.7882 35.4281Z" fill="#0E4255"/>
</svg>
